<svg width="19" height="25" viewBox="0 0 19 25" fill="none" xmlns="http://www.w3.org/2000/svg">
<path d="M18.75 7.03125C18.75 4.87305 17.002 3.125 14.8438 3.125C12.6855 3.125 10.9375 4.87305 10.9375 7.03125C10.9375 8.80859 12.124 10.3076 13.7451 10.7813C13.7158 11.5674 13.54 12.1729 13.208 12.583C12.4561 13.5205 10.8008 13.6768 9.04785 13.8379C7.6709 13.9648 6.24512 14.1016 5.07812 14.6631V7.63184C6.66504 7.13379 7.8125 5.6543 7.8125 3.90625C7.8125 1.74805 6.06445 0 3.90625 0C1.74805 0 0 1.74805 0 3.90625C0 5.6543 1.14746 7.13379 2.73438 7.63184V17.3633C1.14746 17.8662 0 19.3457 0 21.0938C0 23.252 1.74805 25 3.90625 25C6.06445 25 7.8125 23.252 7.8125 21.0938C7.8125 19.4336 6.77734 18.0127 5.3125 17.4512C5.46387 17.1973 5.69336 16.9727 6.04004 16.7969C6.83105 16.3965 8.0127 16.2891 9.26758 16.1719C11.3281 15.9814 13.6621 15.7617 15.0391 14.0527C15.7227 13.2031 16.0693 12.1094 16.0938 10.7373C17.6367 10.21 18.75 8.75 18.75 7.03125ZM3.90625 3.125C4.33594 3.125 4.6875 3.47656 4.6875 3.90625C4.6875 4.33594 4.33594 4.6875 3.90625 4.6875C3.47656 4.6875 3.125 4.33594 3.125 3.90625C3.125 3.47656 3.47656 3.125 3.90625 3.125ZM3.90625 21.875C3.47656 21.875 3.125 21.5234 3.125 21.0938C3.125 20.6641 3.47656 20.3125 3.90625 20.3125C4.33594 20.3125 4.6875 20.6641 4.6875 21.0938C4.6875 21.5234 4.33594 21.875 3.90625 21.875ZM14.8438 6.25C15.2734 6.25 15.625 6.60156 15.625 7.03125C15.625 7.46094 15.2734 7.8125 14.8438 7.8125C14.4141 7.8125 14.0625 7.46094 14.0625 7.03125C14.0625 6.60156 14.4141 6.25 14.8438 6.25Z" fill="#19E3E3"/>
</svg>
