<svg width="19" height="18" viewBox="0 0 19 18" fill="none" xmlns="http://www.w3.org/2000/svg">
<path id="Vector" d="M9.5 0C8.3181 0 7.14778 0.238571 6.05585 0.702093C4.96392 1.16561 3.97177 1.84501 3.13604 2.70148C1.44821 4.43121 0.5 6.77723 0.5 9.22344C0.5 13.3002 3.083 16.759 6.656 17.9857C7.106 18.0595 7.25 17.7736 7.25 17.5245C7.25 17.3124 7.25 16.7313 7.25 15.9658C4.757 16.5192 4.226 14.7298 4.226 14.7298C3.812 13.6599 3.227 13.374 3.227 13.374C2.408 12.8021 3.29 12.8206 3.29 12.8206C4.19 12.8851 4.667 13.7706 4.667 13.7706C5.45 15.1726 6.773 14.7575 7.286 14.5361C7.367 13.9366 7.601 13.5308 7.853 13.3002C5.855 13.0696 3.758 12.2764 3.758 8.76227C3.758 7.73847 4.1 6.91758 4.685 6.26272C4.595 6.03213 4.28 5.07289 4.775 3.82773C4.775 3.82773 5.531 3.5787 7.25 4.76852C7.961 4.5656 8.735 4.46415 9.5 4.46415C10.265 4.46415 11.039 4.5656 11.75 4.76852C13.469 3.5787 14.225 3.82773 14.225 3.82773C14.72 5.07289 14.405 6.03213 14.315 6.26272C14.9 6.91758 15.242 7.73847 15.242 8.76227C15.242 12.2856 13.136 13.0604 11.129 13.291C11.453 13.5769 11.75 14.1395 11.75 14.9973C11.75 16.2333 11.75 17.2294 11.75 17.5245C11.75 17.7736 11.894 18.0687 12.353 17.9857C15.926 16.7498 18.5 13.3002 18.5 9.22344C18.5 8.0122 18.2672 6.81282 17.8149 5.69378C17.3626 4.57474 16.6997 3.55796 15.864 2.70148C15.0282 1.84501 14.0361 1.16561 12.9442 0.702093C11.8522 0.238571 10.6819 0 9.5 0Z" fill="white" fill-opacity="0.5"/>
</svg>
