<svg width="12" height="10" viewBox="0 0 12 10" fill="none" xmlns="http://www.w3.org/2000/svg">
<path id="Vector" fill-rule="evenodd" clip-rule="evenodd" d="M6.21983 0.20932C6.36048 0.0752924 6.55121 0 6.75009 0C6.94897 0 7.1397 0.0752924 7.28035 0.20932L11.7804 4.49886C11.921 4.63293 12 4.81474 12 5.00432C12 5.19389 11.921 5.3757 11.7804 5.50977L7.28035 9.79931C7.13889 9.92954 6.94944 10.0016 6.75279 9.99997C6.55614 9.99834 6.36803 9.92316 6.22897 9.7906C6.08991 9.65805 6.01103 9.47874 6.00933 9.29129C6.00762 9.10384 6.08321 8.92325 6.21983 8.78841L9.43963 5.71924H0.75001C0.551095 5.71924 0.360327 5.64392 0.219673 5.50984C0.0790187 5.37577 0 5.19393 0 5.00432C0 4.81471 0.0790187 4.63286 0.219673 4.49879C0.360327 4.36471 0.551095 4.28939 0.75001 4.28939H9.43963L6.21983 1.22022C6.07923 1.08615 6.00024 0.904344 6.00024 0.714771C6.00024 0.525199 6.07923 0.343388 6.21983 0.20932Z" fill="#94A3B8"/>
</svg>
