<svg width="33" height="31" viewBox="0 0 33 31" fill="none" xmlns="http://www.w3.org/2000/svg">
<path d="M21.5833 12.7901C25.5802 12.7901 28.7777 15.9876 28.7777 19.9845C28.7777 21.3914 28.378 22.7184 27.6746 23.8216L32.5988 28.7777L30.3765 31L25.3883 26.0918C24.2852 26.7793 22.9742 27.179 21.5833 27.179C17.5864 27.179 14.3889 23.9814 14.3889 19.9845C14.3889 15.9876 17.5864 12.7901 21.5833 12.7901ZM21.5833 15.9876C20.5232 15.9876 19.5066 16.4087 18.7571 17.1583C18.0075 17.9079 17.5864 18.9245 17.5864 19.9845C17.5864 21.0446 18.0075 22.0612 18.7571 22.8108C19.5066 23.5603 20.5232 23.9814 21.5833 23.9814C22.6433 23.9814 23.66 23.5603 24.4095 22.8108C25.1591 22.0612 25.5802 21.0446 25.5802 19.9845C25.5802 18.9245 25.1591 17.9079 24.4095 17.1583C23.66 16.4087 22.6433 15.9876 21.5833 15.9876ZM12.7901 0C14.4862 0 16.1128 0.673762 17.3121 1.87307C18.5114 3.07237 19.1851 4.69898 19.1851 6.39505C19.1851 7.84992 18.6895 9.19288 17.8742 10.28C16.4992 10.7916 15.2682 11.607 14.245 12.6302L12.7901 12.7901C11.094 12.7901 9.46742 12.1163 8.26812 10.917C7.06881 9.71773 6.39505 8.09112 6.39505 6.39505C6.39505 4.69898 7.06881 3.07237 8.26812 1.87307C9.46742 0.673762 11.094 0 12.7901 0ZM0 25.5802V22.3827C0 18.9933 5.2919 16.2114 11.9907 15.9876C11.4791 17.2347 11.1913 18.5776 11.1913 19.9845C11.1913 22.0469 11.7989 23.9814 12.7901 25.5802H0Z" fill="#19E3E3"/>
</svg>
