<svg width="764" height="637" viewBox="0 0 764 637" fill="none" xmlns="http://www.w3.org/2000/svg">
<path d="M723 0V373C723 433.199 674.199 482 614 482H225" stroke="url(#paint0_linear_637_2)" stroke-width="16"/>
<path d="M43 624V624C43 593.32 43 577.98 46.0669 565.325C55.6816 525.655 86.6552 494.682 126.325 485.067C138.98 482 154.32 482 185 482L265 482" stroke="#2B86AE" stroke-width="16"/>
<path d="M79.2008 586L48.9924 616.032L43.9403 621.055L37.924 615.949L7.79925 586L3.84869e-06 593.754L43.5 637L87 593.754L79.2008 586Z" fill="#2B86AE"/>
<path d="M291 338L291 300C291 239.801 339.801 191 400 191L723 191" stroke="url(#paint1_linear_637_2)"/>
<circle cx="724.5" cy="191.5" r="39.5" transform="rotate(180 724.5 191.5)" fill="#2B86AE" fill-opacity="0.25"/>
<g filter="url(#filter0_d_637_2)">
<circle cx="724.5" cy="191.5" r="22.5" transform="rotate(180 724.5 191.5)" fill="#2B86AF" fill-opacity="0.25" shape-rendering="crispEdges"/>
</g>
<g filter="url(#filter1_d_637_2)">
<circle cx="725" cy="191" r="15" transform="rotate(180 725 191)" fill="#2B86AE" fill-opacity="0.25" shape-rendering="crispEdges"/>
</g>
<g filter="url(#filter2_d_637_2)">
<circle cx="724.5" cy="191.5" r="5.5" transform="rotate(180 724.5 191.5)" fill="url(#paint2_radial_637_2)"/>
</g>
<defs>
<filter id="filter0_d_637_2" x="698" y="165" width="53" height="53" filterUnits="userSpaceOnUse" color-interpolation-filters="sRGB">
<feFlood flood-opacity="0" result="BackgroundImageFix"/>
<feColorMatrix in="SourceAlpha" type="matrix" values="0 0 0 0 0 0 0 0 0 0 0 0 0 0 0 0 0 0 127 0" result="hardAlpha"/>
<feOffset/>
<feGaussianBlur stdDeviation="2"/>
<feComposite in2="hardAlpha" operator="out"/>
<feColorMatrix type="matrix" values="0 0 0 0 0 0 0 0 0 0 0 0 0 0 0 0 0 0 0.15 0"/>
<feBlend mode="normal" in2="BackgroundImageFix" result="effect1_dropShadow_637_2"/>
<feBlend mode="normal" in="SourceGraphic" in2="effect1_dropShadow_637_2" result="shape"/>
</filter>
<filter id="filter1_d_637_2" x="706" y="172" width="38" height="38" filterUnits="userSpaceOnUse" color-interpolation-filters="sRGB">
<feFlood flood-opacity="0" result="BackgroundImageFix"/>
<feColorMatrix in="SourceAlpha" type="matrix" values="0 0 0 0 0 0 0 0 0 0 0 0 0 0 0 0 0 0 127 0" result="hardAlpha"/>
<feOffset/>
<feGaussianBlur stdDeviation="2"/>
<feComposite in2="hardAlpha" operator="out"/>
<feColorMatrix type="matrix" values="0 0 0 0 0 0 0 0 0 0 0 0 0 0 0 0 0 0 0.15 0"/>
<feBlend mode="normal" in2="BackgroundImageFix" result="effect1_dropShadow_637_2"/>
<feBlend mode="normal" in="SourceGraphic" in2="effect1_dropShadow_637_2" result="shape"/>
</filter>
<filter id="filter2_d_637_2" x="715" y="182" width="19" height="19" filterUnits="userSpaceOnUse" color-interpolation-filters="sRGB">
<feFlood flood-opacity="0" result="BackgroundImageFix"/>
<feColorMatrix in="SourceAlpha" type="matrix" values="0 0 0 0 0 0 0 0 0 0 0 0 0 0 0 0 0 0 127 0" result="hardAlpha"/>
<feOffset/>
<feGaussianBlur stdDeviation="2"/>
<feComposite in2="hardAlpha" operator="out"/>
<feColorMatrix type="matrix" values="0 0 0 0 0 0 0 0 0 0 0 0 0 0 0 0 0 0 0.15 0"/>
<feBlend mode="normal" in2="BackgroundImageFix" result="effect1_dropShadow_637_2"/>
<feBlend mode="normal" in="SourceGraphic" in2="effect1_dropShadow_637_2" result="shape"/>
</filter>
<linearGradient id="paint0_linear_637_2" x1="723" y1="482" x2="723" y2="5.28649e-06" gradientUnits="userSpaceOnUse">
<stop stop-color="#2B86AE"/>
<stop offset="1" stop-color="#28A9E2" stop-opacity="0.2"/>
</linearGradient>
<linearGradient id="paint1_linear_637_2" x1="291" y1="191" x2="291" y2="338" gradientUnits="userSpaceOnUse">
<stop stop-color="#2B86AE"/>
<stop offset="1" stop-color="#28A9E2" stop-opacity="0.2"/>
</linearGradient>
<radialGradient id="paint2_radial_637_2" cx="0" cy="0" r="1" gradientUnits="userSpaceOnUse" gradientTransform="translate(724.5 191.5) rotate(90) scale(5)">
<stop stop-color="white"/>
<stop offset="0.909033" stop-color="#2B86AE"/>
</radialGradient>
</defs>
</svg>
